<?xml version="1.0" encoding="utf-8"?>
<!-- Generator: Adobe Illustrator 17.0.0, SVG Export Plug-In . SVG Version: 6.00 Build 0)  -->
<!DOCTYPE svg PUBLIC "-//W3C//DTD SVG 1.1//EN" "http://www.w3.org/Graphics/SVG/1.1/DTD/svg11.dtd">
<svg version="1.1" id="facebook-square" xmlns="http://www.w3.org/2000/svg" xmlns:xlink="http://www.w3.org/1999/xlink" x="0px"
	 y="0px" width="779.53px" height="518.74px" viewBox="0 0 779.53 518.74" enable-background="new 0 0 779.53 518.74"
	 xml:space="preserve">
<circle fill="#B47812" cx="389.765" cy="259.37" r="248.995"/>
<path fill="#FFFFFF" d="M474.493,132.279H305.042c-23.302,0-42.368,19.066-42.368,42.371v169.444
	c0,23.317,19.066,42.368,42.366,42.368h169.452c23.307,0.003,42.366-19.051,42.366-42.368V174.652
	C516.856,151.35,497.798,132.281,474.493,132.279L474.493,132.279z M478.776,259.37h-41.351v111.205h-47.659V259.37h-22.967v-36.382
	h22.967V199.36c0-32.105,13.848-51.197,51.599-51.197h43.502v39.362h-35.531c-10.546-0.018-11.853,5.499-11.853,15.764l-0.06,19.697
	h47.662l-6.305,36.382v0.003H478.776z"/>
</svg>
