<?xml version="1.0" encoding="utf-8"?>
<!-- Generator: Adobe Illustrator 17.0.0, SVG Export Plug-In . SVG Version: 6.00 Build 0)  -->
<!DOCTYPE svg PUBLIC "-//W3C//DTD SVG 1.1//EN" "http://www.w3.org/Graphics/SVG/1.1/DTD/svg11.dtd">
<svg version="1.1" id="googleplus-square" xmlns="http://www.w3.org/2000/svg" xmlns:xlink="http://www.w3.org/1999/xlink" x="0px"
	 y="0px" width="779.53px" height="518.74px" viewBox="0 0 779.53 518.74" enable-background="new 0 0 779.53 518.74"
	 xml:space="preserve">
<circle fill="#B47812" cx="389.765" cy="259.37" r="248.995"/>
<path fill="#FFFFFF" d="M262.879,348.145c-0.062-0.628-0.112-1.258-0.145-1.893C262.767,346.887,262.816,347.517,262.879,348.145z
	 M321.234,272.562c22.838,0.68,38.159-23.009,34.219-52.917c-3.945-29.905-25.665-53.905-48.505-54.587
	c-22.84-0.68-38.161,22.207-34.216,52.123C276.674,247.081,298.386,271.879,321.234,272.562z M516.854,195.827v-21.175
	c0-23.302-19.059-42.368-42.36-42.368H305.044c-22.905,0-41.702,18.426-42.337,41.185c14.486-12.753,34.582-23.411,55.321-23.411
	c22.166,0,88.673,0,88.673,0l-19.844,16.784h-28.116c18.649,7.151,28.585,28.824,28.585,51.062c0,18.677-10.377,34.737-25.042,46.16
	c-14.307,11.145-17.02,15.811-17.02,25.286c0,8.085,15.326,21.844,23.341,27.498c23.426,16.517,31.008,31.848,31.008,57.45
	c0,4.077-0.506,8.149-1.504,12.151h76.387c23.302,0,42.36-19.051,42.36-42.368V211.711H469.2v47.657h-15.886v-47.657h-47.657
	v-15.886h47.657V148.17H469.2v47.654h47.657L516.854,195.827z M308.818,322.4c5.366,0,10.281-0.148,15.373-0.148
	c-6.738-6.536-12.071-14.545-12.071-24.417c0-5.859,1.878-11.5,4.503-16.512c-2.677,0.189-5.408,0.246-8.222,0.246
	c-18.457,0-34.13-5.976-45.724-15.85v16.69l0.003,50.071C275.943,326.184,291.692,322.4,308.818,322.4L308.818,322.4z
	 M263.527,352.512c-0.278-1.354-0.488-2.731-0.63-4.127C263.039,349.781,263.252,351.158,263.527,352.512z M375.73,368.79
	c-3.74-14.597-16.991-21.834-35.469-34.644c-6.72-2.168-14.123-3.444-22.065-3.527c-22.246-0.239-42.967,8.673-54.66,21.935
	c3.953,19.287,21.108,33.894,41.51,33.894h71.101c0.449-2.762,0.669-5.618,0.669-8.546
	C376.815,374.795,376.433,371.752,375.73,368.79z"/>
</svg>
