<?xml version="1.0" encoding="utf-8"?>
<!-- Generator: Adobe Illustrator 17.0.0, SVG Export Plug-In . SVG Version: 6.00 Build 0)  -->
<!DOCTYPE svg PUBLIC "-//W3C//DTD SVG 1.1//EN" "http://www.w3.org/Graphics/SVG/1.1/DTD/svg11.dtd">
<svg version="1.1" id="delicious" xmlns="http://www.w3.org/2000/svg" xmlns:xlink="http://www.w3.org/1999/xlink" x="0px" y="0px"
	 width="779.53px" height="518.74px" viewBox="0 0 779.53 518.74" enable-background="new 0 0 779.53 518.74" xml:space="preserve">
<circle fill="#8D2F31" stroke="#B4770E" stroke-width="20" stroke-miterlimit="10" cx="389.765" cy="259.37" r="248.995"/>
<path fill="none" d="M463.967,84.87c43.466,0,78.702,35.236,78.702,78.702s-35.236,78.702-78.702,78.702
	s-78.702-35.236-78.702-78.702"/>
<path fill="none" stroke="#FFFFFF" stroke-width="40" stroke-miterlimit="10" d="M262.765,426.061"/>
<path fill="none" stroke="#FFFFFF" stroke-width="40" stroke-miterlimit="10" d="M389.765,259.37"/>
<path fill="#FFFFFF" stroke="#000000" stroke-miterlimit="10" d="M453.265,248.87"/>
<path fill="#FFFFFF" d="M500.728,104.923c-30.58,0-55.364,24.784-55.364,55.364c0,8.262,1.817,16.112,5.061,23.141l50.303,98.66
	l50.304-98.661c3.244-7.028,5.06-14.878,5.06-23.14C556.093,129.708,531.309,104.923,500.728,104.923z M500.728,193.506
	c-18.339,0-33.218-14.879-33.218-33.219s14.879-33.219,33.218-33.219c18.339,0,33.219,14.879,33.219,33.219
	S519.068,193.506,500.728,193.506z M517.295,298.33l20.156,40.291l-51.104,25.541l-17.128-85.685l2.876-2.876l0.303-0.303
	l-10.554-20.762l-5.407,5.407L390,215.651l-66.437,44.291l-44.291-44.291l-66.437,132.874l88.583,44.291L390,348.526l88.583,44.291
	l88.583-44.291l-37.371-74.72L517.295,298.33z M293.632,364.162l-51.082-25.541l42.778-85.599l22.578,22.578l2.876,2.876
	L293.632,364.162z M378.927,329.3l-61.939,30.969l16.004-79.997l2.855-1.903l43.08-28.72V329.3z M401.073,329.3v-79.651l43.08,28.72
	l2.833,1.903l16.004,79.997L401.073,329.3z"/>
</svg>
