<?xml version="1.0" encoding="utf-8"?>
<!-- Generator: Adobe Illustrator 17.0.0, SVG Export Plug-In . SVG Version: 6.00 Build 0)  -->
<!DOCTYPE svg PUBLIC "-//W3C//DTD SVG 1.1//EN" "http://www.w3.org/Graphics/SVG/1.1/DTD/svg11.dtd">
<svg version="1.1" id="delicious" xmlns="http://www.w3.org/2000/svg" xmlns:xlink="http://www.w3.org/1999/xlink" x="0px" y="0px"
	 width="779.53px" height="518.74px" viewBox="0 0 779.53 518.74" enable-background="new 0 0 779.53 518.74" xml:space="preserve">
<circle fill="#B47812" cx="389.765" cy="259.37" r="248.995"/>
<path fill="none" stroke="#FFFFFF" stroke-width="40" stroke-miterlimit="10" d="M262.765,426.061"/>
<path fill="none" stroke="#FFFFFF" stroke-width="40" stroke-miterlimit="10" d="M389.765,259.37"/>
<path fill="#FFFFFF" d="M366.937,176.26"/>
<g id="_x32_37._Locked">
	<g>
		<path fill="#8D2F31" d="M469.175,231.747v-39.856c0-44.034-35.697-79.725-79.725-79.725c-44.034,0-79.725,35.69-79.725,79.725
			v39.856c-14.676,0-26.575,11.899-26.575,26.575v132.881c0,14.676,11.899,26.575,26.575,26.575h159.449
			c14.676,0,26.575-11.899,26.575-26.575V258.322C495.75,243.646,483.851,231.747,469.175,231.747z M336.3,191.892
			c0-29.358,23.797-53.149,53.149-53.149c29.352,0,53.149,23.791,53.149,53.149v39.856H336.3V191.892z M469.175,391.203h-159.45
			V258.329h159.449L469.175,391.203L469.175,391.203z M376.163,334.366v16.975c0,7.334,5.953,13.287,13.287,13.287
			s13.287-5.953,13.287-13.287v-16.975c7.906-4.604,13.287-13.082,13.287-22.887c0-14.682-11.899-26.582-26.575-26.582
			c-14.676,0-26.575,11.899-26.575,26.582C362.875,321.291,368.257,329.762,376.163,334.366z"/>
	</g>
</g>
</svg>
