<?xml version="1.0" encoding="utf-8"?>
<!-- Generator: Adobe Illustrator 17.0.0, SVG Export Plug-In . SVG Version: 6.00 Build 0)  -->
<!DOCTYPE svg PUBLIC "-//W3C//DTD SVG 1.1//EN" "http://www.w3.org/Graphics/SVG/1.1/DTD/svg11.dtd">
<svg version="1.1" id="delicious" xmlns="http://www.w3.org/2000/svg" xmlns:xlink="http://www.w3.org/1999/xlink" x="0px" y="0px"
	 width="779.53px" height="518.74px" viewBox="0 0 779.53 518.74" enable-background="new 0 0 779.53 518.74" xml:space="preserve">
<circle fill="#B47812" cx="389.765" cy="259.37" r="248.995"/>
<path fill="none" stroke="#FFFFFF" stroke-width="40" stroke-miterlimit="10" d="M262.765,426.061"/>
<path fill="none" stroke="#FFFFFF" stroke-width="40" stroke-miterlimit="10" d="M389.765,259.37"/>
<g id="_x32_39._Unlocked">
	<g>
		<path fill="#FFFFFF" d="M469.489,230.78H339.42l-13.008-22.535c-14.676-25.419-5.972-57.926,19.459-72.602
			c25.419-14.683,57.926-5.966,72.602,19.453l26.575,46.027c3.674,6.358,11.793,8.531,18.151,4.863
			c6.352-3.674,8.531-11.793,4.856-18.151l-26.575-46.027c-22.01-38.135-70.768-51.196-108.903-29.186
			c-38.135,22.017-51.196,70.775-29.179,108.91l5.408,9.367c-14.092,0.664-25.339,12.198-25.339,26.455v132.88
			c0,14.676,11.899,26.575,26.575,26.575h159.448c14.676,0,26.575-11.899,26.575-26.575v-132.88
			C496.064,242.679,484.165,230.78,469.489,230.78z M469.489,390.234H310.042V257.362H469.49L469.489,390.234L469.489,390.234z
			 M376.478,333.398v16.974c0,7.335,5.953,13.287,13.287,13.287c7.335,0,13.287-5.953,13.287-13.287v-16.974
			c7.906-4.604,13.287-13.082,13.287-22.887c0-14.683-11.899-26.581-26.575-26.581s-26.575,11.899-26.575,26.581
			C363.191,320.317,368.572,328.787,376.478,333.398z"/>
	</g>
</g>
<path fill="#FFFFFF" d="M366.937,176.26"/>
</svg>
