<?xml version="1.0" encoding="utf-8"?>
<!-- Generator: Adobe Illustrator 17.0.0, SVG Export Plug-In . SVG Version: 6.00 Build 0)  -->
<!DOCTYPE svg PUBLIC "-//W3C//DTD SVG 1.1//EN" "http://www.w3.org/Graphics/SVG/1.1/DTD/svg11.dtd">
<svg version="1.1" id="delicious" xmlns="http://www.w3.org/2000/svg" xmlns:xlink="http://www.w3.org/1999/xlink" x="0px" y="0px"
	 width="779.53px" height="518.74px" viewBox="0 0 779.53 518.74" enable-background="new 0 0 779.53 518.74" xml:space="preserve">
<circle cx="389.765" cy="259.37" r="248.995"/>
<path fill="none" d="M463.967,84.87c43.466,0,78.702,35.236,78.702,78.702s-35.236,78.702-78.702,78.702
	s-78.702-35.236-78.702-78.702"/>
<path fill="none" stroke="#FFFFFF" stroke-width="40" stroke-miterlimit="10" d="M262.765,426.061"/>
<path fill="none" stroke="#FFFFFF" stroke-width="40" stroke-miterlimit="10" d="M389.765,259.37"/>
<path fill="#FFFFFF" d="M491.089,212.728h-5.987v-28.02c0-51.825-41.127-95.118-92.53-96.042c-1.404-0.025-4.211-0.025-5.615,0
	c-51.404,0.924-92.53,44.217-92.53,96.042v28.02h-5.987c-9.226,0-16.752,9.521-16.752,21.279v140.537
	c0,11.745,7.526,21.355,16.753,21.355H491.09c9.227,0,16.753-9.61,16.753-21.355V234.007
	C507.842,222.249,500.317,212.728,491.089,212.728z M408.751,304.133v42.464c0,4.863-4.071,8.978-8.938,8.978h-20.095
	c-4.867,0-8.938-4.115-8.938-8.978v-42.464c-4.72-4.647-7.468-11.07-7.468-18.177c0-13.467,10.41-25.039,23.646-25.573
	c1.403-0.057,4.212-0.057,5.615,0c13.236,0.534,23.646,12.106,23.646,25.573C416.218,293.063,413.47,299.486,408.751,304.133z
	 M445.643,212.728h-53.071h-5.615h-53.071v-28.02c0-30.871,25.088-56.397,55.878-56.397s55.878,25.526,55.878,56.397
	L445.643,212.728L445.643,212.728z"/>
</svg>
