<?xml version="1.0" encoding="utf-8"?>
<!-- Generator: Adobe Illustrator 17.0.0, SVG Export Plug-In . SVG Version: 6.00 Build 0)  -->
<!DOCTYPE svg PUBLIC "-//W3C//DTD SVG 1.1//EN" "http://www.w3.org/Graphics/SVG/1.1/DTD/svg11.dtd">
<svg version="1.1" id="mail" xmlns="http://www.w3.org/2000/svg" xmlns:xlink="http://www.w3.org/1999/xlink" x="0px" y="0px"
	 width="779.53px" height="518.74px" viewBox="0 0 779.53 518.74" enable-background="new 0 0 779.53 518.74" xml:space="preserve">
<circle fill="#B47812" cx="389.765" cy="259.37" r="248.995"/>
<path fill="#FFFFFF" d="M389.765,132.279c-70.191,0-127.091,56.901-127.091,127.091s56.901,127.091,127.091,127.091
	s127.091-56.901,127.091-127.091S459.956,132.279,389.765,132.279z M326.219,195.824h127.091c2.267,0,4.469,0.488,6.489,1.406
	l-70.035,81.707l-70.035-81.709C321.75,196.309,323.952,195.822,326.219,195.824L326.219,195.824z M310.333,307.029v-95.318
	c0-0.332,0.013-0.664,0.036-0.993l46.583,54.346l-46.069,46.072C310.522,309.81,310.336,308.432,310.333,307.029L310.333,307.029z
	 M453.311,322.916H326.219c-1.403,0-2.78-0.189-4.106-0.55l45.206-45.206l22.446,26.189l22.443-26.186l45.206,45.206
	C456.091,322.726,454.714,322.916,453.311,322.916L453.311,322.916z M469.197,307.029c0,1.403-0.189,2.78-0.547,4.106
	l-46.069-46.072l46.583-54.346c0.021,0.329,0.036,0.661,0.036,0.993L469.197,307.029L469.197,307.029z"/>
</svg>
