<?xml version="1.0" encoding="utf-8"?>
<!-- Generator: Adobe Illustrator 17.0.0, SVG Export Plug-In . SVG Version: 6.00 Build 0)  -->
<!DOCTYPE svg PUBLIC "-//W3C//DTD SVG 1.1//EN" "http://www.w3.org/Graphics/SVG/1.1/DTD/svg11.dtd">
<svg version="1.1" id="Capa_1" xmlns="http://www.w3.org/2000/svg" xmlns:xlink="http://www.w3.org/1999/xlink" x="0px" y="0px"
	 width="52px" height="52px" viewBox="0 0 52 52" enable-background="new 0 0 52 52" xml:space="preserve">
<g>
	<path fill="#FFFFFF" d="M49.033,45.006v-1.119c0-1.598-1.296-2.894-2.894-2.894h-4.898V21.892h1.952v-1.745h-9.452v1.745h1.951
		v19.101h-6.924V21.892h1.953v-1.745h-9.453v1.745h1.952v19.101h-6.925V21.892h1.953v-1.745H8.796v1.745h1.952v19.101H6.021
		c-1.598,0-2.894,1.296-2.894,2.894v1.119H0.369v4.012h51.424v-4.012H49.033z"/>
	<rect x="3.129" y="17.313" fill="#FFFFFF" width="45.732" height="1.481"/>
	<rect x="3.129" y="14.174" fill="#FFFFFF" width="45.732" height="1.481"/>
	<polygon fill="#FFFFFF" points="48.861,11.34 25.836,1.832 3.129,11.34 3.129,12.821 48.861,12.821 	"/>
</g>
</svg>
