<?xml version="1.0" encoding="utf-8"?>
<!-- Generator: Adobe Illustrator 17.0.0, SVG Export Plug-In . SVG Version: 6.00 Build 0)  -->
<!DOCTYPE svg PUBLIC "-//W3C//DTD SVG 1.1//EN" "http://www.w3.org/Graphics/SVG/1.1/DTD/svg11.dtd">
<svg version="1.1" id="delicious" xmlns="http://www.w3.org/2000/svg" xmlns:xlink="http://www.w3.org/1999/xlink" x="0px" y="0px"
	 width="779.53px" height="518.74px" viewBox="0 0 779.53 518.74" enable-background="new 0 0 779.53 518.74" xml:space="preserve">
<circle fill="#8D2F31" stroke="#B4770E" stroke-width="20" stroke-miterlimit="10" cx="389.765" cy="259.37" r="248.995"/>
<path fill="none" d="M463.967,84.87c43.466,0,78.702,35.236,78.702,78.702s-35.236,78.702-78.702,78.702
	s-78.702-35.236-78.702-78.702"/>
<path fill="none" stroke="#FFFFFF" stroke-width="40" stroke-miterlimit="10" d="M262.765,426.061"/>
<path fill="none" stroke="#FFFFFF" stroke-width="40" stroke-miterlimit="10" d="M389.765,259.37"/>
<path fill="#FFFFFF" stroke="#000000" stroke-miterlimit="10" d="M453.265,248.87"/>
<g>
	<path fill="#FFFFFF" d="M541.903,371.797v-7.402c0-10.571-8.573-19.143-19.143-19.143h-32.399V218.904h12.912v-11.543H440.75
		v11.543h12.905v126.348h-45.801V218.904h12.919v-11.543h-62.53v11.543h12.912v126.348h-45.807V218.904h12.919v-11.543h-62.523
		v11.543h12.912v126.348h-31.267c-10.571,0-19.143,8.573-19.143,19.143v7.402h-18.244v26.538h340.157v-26.538H541.903z"/>
	<rect x="238.259" y="188.615" fill="#FFFFFF" width="302.506" height="9.797"/>
	<rect x="238.259" y="167.851" fill="#FFFFFF" width="302.506" height="9.797"/>
	<polygon fill="#FFFFFF" points="540.765,149.105 388.461,86.212 238.259,149.105 238.259,158.902 540.765,158.902 	"/>
</g>
</svg>
