<?xml version="1.0" encoding="utf-8"?>
<!-- Generator: Adobe Illustrator 17.0.0, SVG Export Plug-In . SVG Version: 6.00 Build 0)  -->
<!DOCTYPE svg PUBLIC "-//W3C//DTD SVG 1.1//EN" "http://www.w3.org/Graphics/SVG/1.1/DTD/svg11.dtd">
<svg version="1.1" id="Capa_1" xmlns="http://www.w3.org/2000/svg" xmlns:xlink="http://www.w3.org/1999/xlink" x="0px" y="0px"
	 width="612px" height="792px" viewBox="0 0 612 792" enable-background="new 0 0 612 792" xml:space="preserve">
<path d="M406.369,338.166c3.672,9.588,5.508,19.38,5.508,29.376s-1.836,19.788-5.508,29.376s-9.384,18.258-17.136,26.01
	s-16.424,13.566-26.012,17.442s-19.48,5.812-29.682,5.812s-20.094-1.938-29.682-5.812c-9.588-3.876-18.258-9.69-26.01-17.442
	s-13.566-16.422-17.442-26.01c-3.876-9.588-5.814-19.38-5.814-29.376s1.938-19.788,5.814-29.376s9.69-18.258,17.442-26.01
	c7.752-7.752,16.422-13.464,26.01-17.136s19.482-5.508,29.682-5.508s20.094,1.836,29.682,5.508s18.26,9.384,26.012,17.136
	C396.985,319.908,402.697,328.578,406.369,338.166z M612,396c0,28.152-3.672,55.284-11.016,81.396
	c-7.346,26.11-17.646,50.488-30.906,73.134c-13.26,22.644-29.172,43.248-47.736,61.812c-18.562,18.564-39.168,34.478-61.812,47.736
	c-22.646,13.26-47.022,23.562-73.135,30.906C361.284,698.328,334.152,702,306,702s-55.284-3.672-81.396-11.016
	c-26.112-7.346-50.49-17.646-73.134-30.906s-43.248-29.172-61.812-47.736c-18.564-18.562-34.476-39.168-47.736-61.812
	c-13.26-22.646-23.562-47.022-30.906-73.134C3.672,451.284,0,424.152,0,396s3.672-55.284,11.016-81.396s17.646-50.49,30.906-73.134
	s29.172-43.248,47.736-61.812s39.168-34.476,61.812-47.736s47.022-23.562,73.134-30.906S277.848,90,306,90
	c42.024,0,81.702,8.058,119.034,24.174s69.768,37.944,97.308,65.484s49.368,59.976,65.484,97.308S612,353.976,612,396z"/>
<g>
	<path fill="#FFFFFF" d="M506.284,534.905L400.057,428.678c-15.825,24.614-36.765,45.554-61.379,61.379l106.227,106.227
		c16.956,16.956,44.452,16.956,61.379,0C523.239,579.356,523.239,551.86,506.284,534.905z"/>
	<path fill="#FFFFFF" d="M403.25,319.625C403.25,223.742,325.509,146,229.625,146S56,223.742,56,319.625
		S133.742,493.25,229.625,493.25S403.25,415.509,403.25,319.625z M229.625,449.844c-71.807,0-130.219-58.412-130.219-130.219
		s58.412-130.219,130.219-130.219s130.219,58.412,130.219,130.219S301.432,449.844,229.625,449.844z"/>
	<path fill="#FFFFFF" d="M128.344,319.625h28.938c0-39.888,32.456-72.344,72.344-72.344v-28.938
		C173.785,218.344,128.344,263.785,128.344,319.625z"/>
</g>
</svg>
