<?xml version="1.0" encoding="utf-8"?>
<!-- Generator: Adobe Illustrator 17.0.0, SVG Export Plug-In . SVG Version: 6.00 Build 0)  -->
<!DOCTYPE svg PUBLIC "-//W3C//DTD SVG 1.1//EN" "http://www.w3.org/Graphics/SVG/1.1/DTD/svg11.dtd">
<svg version="1.1" id="delicious" xmlns="http://www.w3.org/2000/svg" xmlns:xlink="http://www.w3.org/1999/xlink" x="0px" y="0px"
	 width="779.53px" height="518.74px" viewBox="0 0 779.53 518.74" enable-background="new 0 0 779.53 518.74" xml:space="preserve">
<circle fill="#8D2F31" stroke="#B4770E" stroke-width="20" stroke-miterlimit="10" cx="389.765" cy="259.37" r="248.995"/>
<path fill="none" d="M463.967,84.87c43.466,0,78.702,35.236,78.702,78.702s-35.236,78.702-78.702,78.702
	s-78.702-35.236-78.702-78.702"/>
<path fill="none" stroke="#FFFFFF" stroke-width="40" stroke-miterlimit="10" d="M262.765,426.061"/>
<path fill="none" stroke="#FFFFFF" stroke-width="40" stroke-miterlimit="10" d="M389.765,259.37"/>
<path fill="#FFFFFF" stroke="#000000" stroke-miterlimit="10" d="M453.265,248.87"/>
<path fill="#FFFFFF" d="M392.861,212.327c-34.196,0-62.034,27.83-62.034,62.033s27.83,62.033,62.034,62.033
	c34.196,0,62.033-27.83,62.033-62.033C454.894,240.137,427.071,212.327,392.861,212.327z M400.316,236.52
	c-24.332,0-44.047,19.722-44.047,44.047c0,11.885,4.755,22.624,12.419,30.551c-11.947-7.872-19.861-21.381-19.861-36.758
	c0-24.339,19.722-44.047,44.047-44.047c12.419,0,23.602,5.193,31.628,13.475C417.546,239.214,409.251,236.52,400.316,236.52z
	 M264.47,339.498h-44.783V190.621h44.783V339.498z M539.996,149.656h-89.44v-3.7c0-10.955-8.899-19.847-19.847-19.847h-81.881
	c-10.954,0-19.847,8.892-19.847,19.847v3.7h-20.555c-2.221-8.531-9.913-14.869-19.145-14.869h-29.774
	c-9.232,0-16.924,6.338-19.145,14.869h-0.827c-10.955,0-19.847,8.892-19.847,19.847v6.22h52.225c4.11,0,7.441,3.332,7.441,7.441
	v163.769c0,4.11-3.332,7.441-7.441,7.441h-52.225v6.22c0,10.955,8.892,19.847,19.847,19.847h19.972h29.774h59.549h81.881h109.287
	c10.961,0,19.847-8.893,19.847-19.847V169.51C559.844,158.548,550.965,149.656,539.996,149.656z M392.861,356.22
	c-45.144,0-81.881-36.729-81.881-81.881c0-45.137,36.737-81.881,81.881-81.881c45.15,0,81.881,36.737,81.881,81.881
	C474.742,319.491,438.012,356.22,392.861,356.22z"/>
</svg>
