<?xml version="1.0" encoding="utf-8"?>
<!-- Generator: Adobe Illustrator 17.0.0, SVG Export Plug-In . SVG Version: 6.00 Build 0)  -->
<!DOCTYPE svg PUBLIC "-//W3C//DTD SVG 1.1//EN" "http://www.w3.org/Graphics/SVG/1.1/DTD/svg11.dtd">
<svg version="1.1" id="twitter" xmlns="http://www.w3.org/2000/svg" xmlns:xlink="http://www.w3.org/1999/xlink" x="0px" y="0px"
	 width="779.53px" height="518.74px" viewBox="0 0 779.53 518.74" enable-background="new 0 0 779.53 518.74" xml:space="preserve">
<circle fill="#B47812" stroke="#840733" stroke-miterlimit="10" cx="389.765" cy="259.37" r="248.995"/>
<path fill="#FFFFFF" d="M516.859,180.075c-9.353,4.171-19.401,6.99-29.949,8.258c10.764-6.492,19.033-16.771,22.931-29.021
	c-10.077,6.012-21.235,10.375-33.116,12.73c-9.511-10.196-23.066-16.566-38.065-16.566c-28.8,0-52.152,23.483-52.152,52.452
	c0,4.111,0.459,8.113,1.349,11.954c-43.341-2.192-81.766-23.071-107.488-54.807c-4.487,7.75-7.06,16.76-7.06,26.373
	c0,18.2,9.208,34.258,23.201,43.662c-8.549-0.27-16.592-2.63-23.618-6.559c-0.005,0.22-0.005,0.441-0.005,0.661
	c0,25.416,17.977,46.614,41.834,51.436c-4.378,1.201-8.982,1.842-13.739,1.842c-3.361,0-6.627-0.329-9.812-0.941
	c6.637,20.838,25.896,36.006,48.715,36.428c-17.847,14.068-40.335,22.454-64.767,22.454c-4.21,0-8.359-0.249-12.439-0.731
	c23.079,14.883,50.492,23.569,79.938,23.569c95.92,0,148.375-79.93,148.375-149.249c0-2.275-0.052-4.534-0.153-6.788
	C501.024,199.832,509.866,190.59,516.859,180.075z"/>
</svg>
