<?xml version="1.0" encoding="utf-8"?>
<!-- Generator: Adobe Illustrator 17.0.0, SVG Export Plug-In . SVG Version: 6.00 Build 0)  -->
<!DOCTYPE svg PUBLIC "-//W3C//DTD SVG 1.1//EN" "http://www.w3.org/Graphics/SVG/1.1/DTD/svg11.dtd">
<svg version="1.1" id="Layer_1" xmlns="http://www.w3.org/2000/svg" xmlns:xlink="http://www.w3.org/1999/xlink" x="0px" y="0px"
	 width="64px" height="64px" viewBox="0 0 64 64" enable-background="new 0 0 64 64" xml:space="preserve">
<path fill="#231F20" d="M32.001,3.893C16.5,3.893,3.893,16.5,3.893,32c0,15.499,12.608,28.107,28.109,28.107
	C47.5,60.107,60.108,47.499,60.108,32C60.107,16.5,47.499,3.893,32.001,3.893z M24.317,26.657l0.057-0.063
	c0.229-0.167,0.341-0.427,0.299-0.7c-0.567-3.406-0.195-4.826-0.07-5.182c0.99-3.036,4.094-4.441,4.704-4.689
	c0.13-0.051,0.369-0.124,0.612-0.161l0.072-0.016l0.5-0.027l0.004,0.031l0.115-0.011c0.104-0.011,0.202-0.026,0.325-0.051
	l0.11-0.024c0.098,0.001,1.307,0.154,3.102,0.705l1.248,0.43c2.282,0.674,3.333,1.929,3.527,2.181
	c1.827,2.071,1.339,5.197,0.885,6.876c-0.051,0.198-0.021,0.402,0.092,0.571l0.104,0.128c0.133,0.18,0.251,0.874-0.146,2.349
	c-0.075,0.447-0.24,0.811-0.486,1.057c-0.092,0.1-0.154,0.227-0.178,0.369c-0.617,3.622-3.863,7.673-7.283,7.673
	c-2.902,0-6.215-3.728-6.811-7.67c-0.023-0.148-0.084-0.277-0.187-0.388c-0.249-0.256-0.406-0.627-0.502-1.176
	C24.123,27.834,24.093,27.003,24.317,26.657z M17.802,42.363c0.126-0.16,0.827-0.982,2.247-1.523
	c1.248-0.384,4.332-1.408,6.019-2.631c0.079-0.043,0.157-0.124,0.221-0.191c0.156-0.168,0.395-0.423,0.677-0.687l0.157-0.149
	l0.16,0.15c1.485,1.401,3.129,2.169,4.627,2.169c1.575,0,3.2-0.682,4.7-1.973l0.118-0.102l0.318,0.155
	c0.284,0.261,0.777,0.619,1.006,0.729l0.292,0.142l-0.03,0.032l0.13,0.079c0.276,0.167,0.577,0.329,0.932,0.504
	c0.357,0.157,0.655,0.274,0.965,0.375c0.26,0.084,1.648,0.551,3.227,1.281l0.301,0.09c1.543,0.591,2.229,1.412,2.298,1.498
	c1.831,2.716,2.535,7.783,2.796,10.607c-4.786,3.887-10.807,6.027-16.96,6.027c-6.157,0-12.179-2.141-16.963-6.028
	C15.296,50.102,15.993,45.05,17.802,42.363z M47.338,41.529l-0.097-0.113c-0.456-0.568-1.459-1.369-2.918-1.928l-0.23-0.069
	c-1.46-0.673-2.783-1.132-3.285-1.298l-0.039,0.115l0,0l0.01-0.124c-0.315-0.105-0.575-0.215-0.803-0.315
	c-1.663-0.817-1.875-1.293-1.911-1.403l-0.083-0.189l0.073-0.172c1.25-1.56,2.127-3.377,2.463-5.089l0.042-0.104
	c0.352-0.44,0.574-0.96,0.662-1.53c0.396-1.433,0.415-2.488,0.056-3.223l-0.034-0.075l0.019-0.082
	c0.444-1.856,0.87-5.336-1.261-7.755c-0.337-0.426-1.628-1.868-4.179-2.615l-1.24-0.426c-2.063-0.635-3.353-0.773-3.521-0.774l0,0
	c-0.139,0-0.255,0.013-0.43,0.054l-0.164,0.028c-0.086-0.013-0.18-0.02-0.279-0.02c-0.659,0-1.373,0.285-1.407,0.297
	c-0.714,0.299-4.343,1.974-5.492,5.53c-0.189,0.503-0.58,2.04-0.078,5.405l0.016,0.095l-0.059,0.079
	c-0.516,0.692-0.556,1.818-0.124,3.331c0.109,0.67,0.328,1.205,0.653,1.611l0.056,0.12c0.314,1.758,1.097,3.497,2.263,5.027
	l0.101,0.136l-0.092,0.137c-0.05,0.07-0.086,0.148-0.098,0.204c-0.288,0.819-3.505,2.255-6.328,3.118
	c-2.063,0.78-2.936,2.028-2.936,2.028c-1.749,2.596-2.55,6.964-2.917,10.261C8.218,46.703,5.056,39.5,5.056,32
	c0-14.857,12.087-26.944,26.946-26.944c14.857,0,26.946,12.087,26.946,26.944c0,7.501-3.167,14.707-8.696,19.808
	C49.875,48.486,49.065,44.1,47.338,41.529z"/>
</svg>
